<svg width="380" height="380" viewBox="0 0 380 380" fill="none" xmlns="http://www.w3.org/2000/svg">
<rect x="10" width="180" height="10" fill="white" fill-opacity="0.2"/>
<rect x="10" y="190" width="180" height="10" fill="white" fill-opacity="0.2"/>
<rect x="200" y="10" width="180" height="9.99999" transform="rotate(90 200 10)" fill="white" fill-opacity="0.2"/>
<rect x="10" y="10" width="180" height="9.99999" transform="rotate(90 10 10)" fill="white" fill-opacity="0.2"/>
<path d="M105 145H95V135H105V145ZM95 135H85V125H95V135ZM115 135H105V125H115V135ZM85 125H75V115H85V125ZM125 125H115V115H125V125ZM75 115H65V105H75V115ZM135 115H125V105H135V115ZM65 105H55V95H65V105ZM145 105H135V95H145V105ZM75 95H65V85H75V95ZM135 95H125V85H135V95ZM85 85H75V75H85V85ZM125 85H115V75H125V85ZM95 75H85V65H95V75ZM115 75H105V65H115V75ZM105 65H95V55H105V65Z" fill="white" fill-opacity="0.2"/>
<rect x="200" y="200" width="180" height="9.99999" transform="rotate(90 200 200)" fill="white" fill-opacity="0.2"/>
<rect x="10" y="200" width="180" height="9.99999" transform="rotate(90 10 200)" fill="white" fill-opacity="0.2"/>
<path d="M105 355H95V335H105V355ZM95 335H85V315H95V335ZM115 335H105V315H115V335ZM85 315H75V305H85V315ZM125 315H115V305H125V315ZM75 305H55V295H75V305ZM145 305H125V295H145V305ZM55 295H45V285H55V295ZM155 295H145V285H155V295ZM75 285H55V275H75V285ZM145 285H125V275H145V285ZM85 275H75V265H85V275ZM125 275H115V265H125V275ZM95 265H85V245H95V265ZM115 265H105V245H115V265ZM105 245H95V225H105V245Z" fill="white" fill-opacity="0.2"/>
<rect x="200" y="190" width="180" height="10" fill="white" fill-opacity="0.2"/>
<path d="M295 355H285V325H295V355ZM245 345H235V335H245V345ZM345 345H335V335H345V345ZM255 335H245V325H255V335ZM335 335H325V325H335V335ZM265 325H255V315H265V325ZM285 325H275V315H285V325ZM305 325H295V315H305V325ZM325 325H315V315H325V325ZM275 315H265V305H275V315ZM315 315H305V305H315V315ZM265 305H255V295H265V305ZM325 305H315V295H325V305ZM255 295H225V285H255V295ZM355 295H325V285H355V295ZM265 285H255V275H265V285ZM325 285H315V275H325V285ZM275 275H265V265H275V275ZM315 275H305V265H315V275ZM265 265H255V255H265V265ZM285 265H275V255H285V265ZM305 265H295V255H305V265ZM325 265H315V255H325V265ZM255 255H245V245H255V255ZM295 255H285V225H295V255ZM335 255H325V245H335V255ZM245 245H235V235H245V245ZM345 245H335V235H345V245Z" fill="white" fill-opacity="0.2"/>
<rect x="200" width="180" height="10" fill="white" fill-opacity="0.2"/>
<path d="M295 145H285V115H295V145ZM285 115H275V105H285V115ZM305 115H295V105H305V115ZM275 105H245V95H275V105ZM335 105H305V95H335V105ZM285 95H275V85H285V95ZM305 95H295V85H305V95ZM295 85H285V55H295V85Z" fill="white" fill-opacity="0.2"/>
</svg>
